<svg width="13" height="13" viewBox="0 0 13 13" fill="none" xmlns="http://www.w3.org/2000/svg">
<path fill-rule="evenodd" clip-rule="evenodd" d="M8.42381 7.00091L12.7027 2.72205C13.0991 2.32567 13.0991 1.68536 12.7027 1.29915C12.3063 0.902768 11.666 0.902768 11.2798 1.29915L7.00091 5.56785L2.72205 1.28898C2.32567 0.892604 1.68536 0.892604 1.29915 1.28898C0.902768 1.68536 0.902768 2.32567 1.29915 2.71188L5.56785 7.00091L1.28898 11.2798C0.892604 11.6762 0.892604 12.3165 1.28898 12.7027C1.68536 13.0991 2.32567 13.0991 2.71188 12.7027L6.99075 8.42381L11.2696 12.7027C11.666 13.0991 12.3063 13.0991 12.6925 12.7027C13.0889 12.3063 13.0889 11.666 12.6925 11.2798L8.42381 7.00091Z" fill="#0A1D11"/>
</svg>
