<svg width="20" height="20" viewBox="0 0 20 20" fill="none" xmlns="http://www.w3.org/2000/svg">
<path d="M11.9141 10C11.9141 11.0571 11.0571 11.9141 9.99999 11.9141C8.94286 11.9141 8.08593 11.0571 8.08593 10C8.08593 8.94287 8.94286 8.08594 9.99999 8.08594C11.0571 8.08594 11.9141 8.94287 11.9141 10Z" fill="#81E35F"/>
<path d="M14.4763 6.61392C14.3843 6.36459 14.2375 6.13892 14.0468 5.95367C13.8616 5.76294 13.636 5.61615 13.3866 5.52414C13.1842 5.44556 12.8803 5.35202 12.3204 5.32654C11.7148 5.29892 11.5332 5.29297 10 5.29297C8.46667 5.29297 8.28509 5.29877 7.67962 5.32639C7.11977 5.35202 6.81567 5.44556 6.61349 5.52414C6.36401 5.61615 6.13833 5.76294 5.95324 5.95367C5.7625 6.13892 5.61572 6.36444 5.52355 6.61392C5.44497 6.81625 5.35143 7.12036 5.32595 7.68021C5.29833 8.28568 5.29238 8.46725 5.29238 10.0006C5.29238 11.5338 5.29833 11.7154 5.32595 12.321C5.35143 12.8809 5.44497 13.1848 5.52355 13.3871C5.61572 13.6366 5.76235 13.8622 5.95309 14.0474C6.13833 14.2381 6.36385 14.3849 6.61333 14.4769C6.81567 14.5557 7.11977 14.6492 7.67962 14.6747C8.28509 14.7023 8.46651 14.7081 9.99987 14.7081C11.5334 14.7081 11.715 14.7023 12.3203 14.6747C12.8801 14.6492 13.1842 14.5557 13.3866 14.4769C13.8874 14.2838 14.2832 13.8879 14.4763 13.3871C14.5549 13.1848 14.6485 12.8809 14.6741 12.321C14.7017 11.7154 14.7075 11.5338 14.7075 10.0006C14.7075 8.46725 14.7017 8.28568 14.6741 7.68021C14.6486 7.12036 14.5551 6.81625 14.4763 6.61392ZM10 12.9491C8.37145 12.9491 7.05126 11.629 7.05126 10.0005C7.05126 8.37189 8.37145 7.05185 10 7.05185C11.6284 7.05185 12.9486 8.37189 12.9486 10.0005C12.9486 11.629 11.6284 12.9491 10 12.9491ZM13.0652 7.62436C12.6847 7.62436 12.3761 7.31583 12.3761 6.93527C12.3761 6.55472 12.6847 6.24619 13.0652 6.24619C13.4458 6.24619 13.7543 6.55472 13.7543 6.93527C13.7541 7.31583 13.4458 7.62436 13.0652 7.62436Z" fill="#81E35F"/>
<path d="M10 0C4.478 0 0 4.478 0 10C0 15.522 4.478 20 10 20C15.522 20 20 15.522 20 10C20 4.478 15.522 0 10 0ZM15.7076 12.3674C15.6798 12.9787 15.5826 13.396 15.4407 13.7613C15.1424 14.5326 14.5326 15.1424 13.7613 15.4407C13.3961 15.5826 12.9787 15.6796 12.3676 15.7076C11.7552 15.7355 11.5596 15.7422 10.0002 15.7422C8.44055 15.7422 8.24509 15.7355 7.6326 15.7076C7.02148 15.6796 6.604 15.5826 6.23886 15.4407C5.85556 15.2965 5.50858 15.0705 5.22171 14.7783C4.92966 14.4916 4.70367 14.1444 4.55948 13.7613C4.41757 13.3961 4.32037 12.9787 4.2926 12.3676C4.26437 11.7551 4.25781 11.5594 4.25781 10C4.25781 8.44055 4.26437 8.24493 4.29245 7.6326C4.32022 7.02133 4.41727 6.604 4.55917 6.23871C4.70337 5.85556 4.9295 5.50842 5.22171 5.22171C5.50842 4.9295 5.85556 4.70352 6.23871 4.55933C6.604 4.41742 7.02133 4.32037 7.6326 4.29245C8.24493 4.26453 8.44055 4.25781 10 4.25781C11.5594 4.25781 11.7551 4.26453 12.3674 4.2926C12.9787 4.32037 13.396 4.41742 13.7613 4.55917C14.1444 4.70337 14.4916 4.9295 14.7784 5.22171C15.0705 5.50858 15.2966 5.85556 15.4407 6.23871C15.5827 6.604 15.6798 7.02133 15.7077 7.6326C15.7356 8.24493 15.7422 8.44055 15.7422 10C15.7422 11.5594 15.7356 11.7551 15.7076 12.3674Z" fill="#81E35F"/>
</svg>
