<svg width="14" height="14" viewBox="0 0 14 14" fill="none" xmlns="http://www.w3.org/2000/svg">
<path fill-rule="evenodd" clip-rule="evenodd" d="M13.2212 3.7975L7.97125 0.2975C7.67375 0.09625 7.34125 0 7 0C6.65875 0 6.32625 0.09625 6.02875 0.2975L0.77875 3.7975C0.28875 4.12125 0 4.66375 0 5.25V12.25C0 13.2125 0.7875 14 1.75 14H12.25C13.2125 14 14 13.2125 14 12.25V5.25C14 4.66375 13.7112 4.12125 13.2212 3.7975ZM7 1.75L11.4625 4.725L7 7.7L2.5375 4.725L7 1.75ZM12.25 12.25H1.75V6.3L6.51875 9.47625C6.65875 9.5725 6.83375 9.625 7 9.625C7.16625 9.625 7.34125 9.5725 7.48125 9.47625L12.25 6.3V12.25Z" fill="#0A1D11"/>
</svg>
