<svg width="410" height="556" viewBox="0 0 410 556" fill="none" xmlns="http://www.w3.org/2000/svg">
<path d="M304.834 563.408L338.12 580.422L333.005 575.151L342.654 566.702L350.636 547.866L410 589.297L395.818 603.327L386.634 606.04L373.692 604.839L353.348 596.235L351.411 594.219V607.823L345.056 608.753L307.547 611.001L267.17 603.753L256.475 594.723L304.834 563.408Z" fill="#B2B175"/>
<path d="M350.636 547.866L342.653 566.702L383.34 582.088L350.636 547.866Z" fill="#B2B377"/>
<path d="M410 589.297L350.636 547.866L383.34 582.088L410 589.297Z" fill="#D9D492"/>
<path fill-rule="evenodd" clip-rule="evenodd" d="M21.9246 53.6393L30.1007 55.3059L41.7256 61.4294L59.434 60.5768L92.9135 34.8423L103.608 17.208L134.375 0L162.159 9.65043L202.691 13.0998L229.505 23.0603L244.927 38.4467L247.059 38.9505L261.008 42.3611L277.128 46.8957L298.208 72.0488L318.086 85.6136L341.568 87.2802L382.139 92.8224L395.081 97.6282L397.794 169.638L387.099 174.987L316.885 176.421L280.732 148.787L263.566 146.772L232.14 158.283L177.232 167.08L172.699 163.902L144.915 164.135L133.833 174.987L110.312 170.452L81.8312 142.896L35.2932 137.238L28.2795 129.564L1.96866 98.9847L0.922424 76.2345L21.9246 53.6393Z" fill="#789943"/>
<path fill-rule="evenodd" clip-rule="evenodd" d="M28.3183 129.602L58.1553 123.943L103.57 133.439L149.681 120.765L153.75 113.983L183.587 110.805L230.358 118.285L294.294 128.904L350.365 157.623L315.529 168.242L280.732 148.786L263.566 146.771L232.179 158.282L177.232 167.118L172.737 163.94L144.915 164.173L133.872 175.025L110.351 170.49L81.87 142.934L35.3319 137.276L28.3183 129.602Z" fill="#658635"/>
<path fill-rule="evenodd" clip-rule="evenodd" d="M247.059 137.701L219.508 126.19H194.863V144.949L247.059 137.701Z" fill="#5B7D2D"/>
<path fill-rule="evenodd" clip-rule="evenodd" d="M98.1447 121.231L103.57 133.44L58.1553 123.944L98.1447 121.231Z" fill="#6B8F3A"/>
<path fill-rule="evenodd" clip-rule="evenodd" d="M149.681 120.767L98.1446 121.232L103.569 133.44L149.681 120.767Z" fill="#6F913B"/>
<path fill-rule="evenodd" clip-rule="evenodd" d="M2.04615 98.9846L7.62604 77.2808L0.999908 76.2344L2.04615 98.9846Z" fill="#638A37"/>
<path fill-rule="evenodd" clip-rule="evenodd" d="M28.3182 129.604L2.04611 98.986L7.62603 77.2822L29.9069 82.2818L58.1552 123.945L28.3182 129.604Z" fill="#658B37"/>
<path fill-rule="evenodd" clip-rule="evenodd" d="M30.1007 55.3052L7.62606 77.2803L0.999878 76.2338L21.9246 53.6387L30.1007 55.3052Z" fill="#5C8631"/>
<path fill-rule="evenodd" clip-rule="evenodd" d="M61.5264 71.8926L30.1006 55.3047L7.62598 77.2798L29.9069 82.2794L61.5264 71.8926Z" fill="#668E38"/>
<path fill-rule="evenodd" clip-rule="evenodd" d="M58.1552 123.944L61.5264 71.8936L29.9069 82.2804L58.1552 123.944Z" fill="#6F953D"/>
<path fill-rule="evenodd" clip-rule="evenodd" d="M98.1447 121.231L61.5265 71.8936L58.1552 123.944L98.1447 121.231Z" fill="#7CA144"/>
<path fill-rule="evenodd" clip-rule="evenodd" d="M71.1752 59.9561L61.5266 71.8931L41.6869 61.4288L71.1752 59.9561Z" fill="#6C933A"/>
<path fill-rule="evenodd" clip-rule="evenodd" d="M86.8687 68.7926L71.1751 59.9561L61.5266 71.8931L86.8687 68.7926Z" fill="#6E953B"/>
<path fill-rule="evenodd" clip-rule="evenodd" d="M107.328 76.2343L86.8686 68.793L61.5265 71.8935L107.328 76.2343Z" fill="#8FB550"/>
<path fill-rule="evenodd" clip-rule="evenodd" d="M98.1446 121.231L107.328 76.2343L61.5265 71.8936L98.1446 121.231Z" fill="#88AD4C"/>
<path fill-rule="evenodd" clip-rule="evenodd" d="M119.108 55.3047L153.75 113.982L149.681 120.765L119.108 55.3047Z" fill="#5B7F2C"/>
<path fill-rule="evenodd" clip-rule="evenodd" d="M139.413 120.765L119.108 55.3047L149.681 120.765H139.413Z" fill="#517529"/>
<path fill-rule="evenodd" clip-rule="evenodd" d="M107.328 76.2333L119.108 55.3047L139.413 120.765L98.1447 121.23L107.328 76.2333Z" fill="#90B651"/>
<path fill-rule="evenodd" clip-rule="evenodd" d="M86.8686 68.7925L99.8109 31.3535L119.108 55.3052L86.8686 68.7925Z" fill="#739B40"/>
<path fill-rule="evenodd" clip-rule="evenodd" d="M71.175 59.956L99.8109 31.3535L86.8686 68.7925L71.175 59.956Z" fill="#5C8530"/>
<path fill-rule="evenodd" clip-rule="evenodd" d="M59.3953 60.538L92.8748 34.8036L103.57 17.1692L134.375 0L132.67 4.80584L99.8109 31.3542L71.1751 59.9567L59.3953 60.538Z" fill="#57802E"/>
<path fill-rule="evenodd" clip-rule="evenodd" d="M153.75 18.5265L132.67 4.80664L99.8109 31.355L119.108 55.3067L153.75 18.5265Z" fill="#628935"/>
<path fill-rule="evenodd" clip-rule="evenodd" d="M158.245 55.3065L153.75 18.5264L119.108 55.3065H158.245Z" fill="#739A40"/>
<path fill-rule="evenodd" clip-rule="evenodd" d="M153.75 113.982L158.245 55.3047H119.108L153.75 113.982Z" fill="#6F953D"/>
<path fill-rule="evenodd" clip-rule="evenodd" d="M162.197 9.65043L134.375 0L132.67 4.80584L153.75 18.5257L162.197 9.65043Z" fill="#98BF56"/>
<path fill-rule="evenodd" clip-rule="evenodd" d="M217.609 36.8971L153.75 18.5264L226.366 33.9128L217.609 36.8971Z" fill="#6D953C"/>
<path fill-rule="evenodd" clip-rule="evenodd" d="M183.587 110.806L217.609 36.8971L153.75 18.5264L158.245 55.3065L153.75 113.984L183.587 110.806Z" fill="#668C37"/>
<path fill-rule="evenodd" clip-rule="evenodd" d="M250.469 106.968L217.609 36.8955L183.587 110.805L230.978 118.401L250.469 106.968Z" fill="#648A36"/>
<path fill-rule="evenodd" clip-rule="evenodd" d="M226.366 33.9121L250.469 106.969L217.609 36.8964L226.366 33.9121Z" fill="#749B40"/>
<path fill-rule="evenodd" clip-rule="evenodd" d="M202.691 13.1007L162.197 9.65137L153.75 18.5267L226.366 33.9131L202.691 13.1007Z" fill="#8AB14E"/>
<path fill-rule="evenodd" clip-rule="evenodd" d="M261.008 42.3223L247.059 38.9505L226.366 33.9121L250.469 106.969L261.008 42.3223Z" fill="#99BF56"/>
<path fill-rule="evenodd" clip-rule="evenodd" d="M229.505 23.0601L202.691 13.0996L226.366 33.912L244.966 38.4465L229.505 23.0601Z" fill="#A2CA5B"/>
<path fill-rule="evenodd" clip-rule="evenodd" d="M294.604 116.463L250.469 106.968L230.978 118.401L294.294 128.904L294.604 116.463Z" fill="#6C913A"/>
<path fill-rule="evenodd" clip-rule="evenodd" d="M277.128 46.8568L261.008 42.3223L294.604 116.464L277.128 46.8568Z" fill="#B7E068"/>
<path fill-rule="evenodd" clip-rule="evenodd" d="M250.469 106.969L261.008 42.3223L294.604 116.464L250.469 106.969Z" fill="#B0D964"/>
<path fill-rule="evenodd" clip-rule="evenodd" d="M277.128 46.8564L298.208 72.0096L318.086 85.5744L310.414 101.542L294.604 116.464L277.128 46.8564Z" fill="#B2DB65"/>
<path fill-rule="evenodd" clip-rule="evenodd" d="M294.294 128.905L310.414 101.543L294.604 116.464L294.294 128.905Z" fill="#A3C95B"/>
<path fill-rule="evenodd" clip-rule="evenodd" d="M341.607 87.2417L310.414 101.543L318.086 85.5752L341.607 87.2417Z" fill="#8CB34C"/>
<path fill-rule="evenodd" clip-rule="evenodd" d="M350.365 157.624L310.414 101.543L294.294 128.905L350.365 157.624Z" fill="#6B9139"/>
<path fill-rule="evenodd" clip-rule="evenodd" d="M341.607 87.2412L365.244 137.586L350.364 157.623L310.414 101.542L341.607 87.2412Z" fill="#96BC54"/>
<path fill-rule="evenodd" clip-rule="evenodd" d="M382.139 92.8222L341.607 87.2412L365.244 137.586L382.139 92.8222Z" fill="#ACD462"/>
<path fill-rule="evenodd" clip-rule="evenodd" d="M395.081 97.6291L382.139 92.8232L388.61 165.763L397.794 169.678L395.081 97.6291Z" fill="#B7E068"/>
<path fill-rule="evenodd" clip-rule="evenodd" d="M365.244 137.587L382.139 92.8232L388.61 165.763L365.244 137.587Z" fill="#B3DC66"/>
<path fill-rule="evenodd" clip-rule="evenodd" d="M350.365 157.623L365.244 137.586L388.61 165.762L350.365 157.623Z" fill="#A5CD5E"/>
<path fill-rule="evenodd" clip-rule="evenodd" d="M280.732 148.786L316.885 176.458L315.529 168.242L280.732 148.786Z" fill="#5B7C2D"/>
<path fill-rule="evenodd" clip-rule="evenodd" d="M388.61 165.762L347.497 168.746L315.529 168.242L316.885 176.459L387.099 175.025L388.61 165.762Z" fill="#6A8D38"/>
<path fill-rule="evenodd" clip-rule="evenodd" d="M397.794 169.676L388.61 165.762L387.099 175.025L397.794 169.676Z" fill="#8FB450"/>
<path fill-rule="evenodd" clip-rule="evenodd" d="M350.365 157.623L347.497 168.746L388.61 165.762L350.365 157.623Z" fill="#779B40"/>
<path fill-rule="evenodd" clip-rule="evenodd" d="M315.529 168.242L350.365 157.623L347.497 168.746L315.529 168.242Z" fill="#698E38"/>
<path fill-rule="evenodd" clip-rule="evenodd" d="M86.8686 68.792L119.108 55.3047L107.328 76.2333L86.8686 68.792Z" fill="#87AD4C"/>
<path fill-rule="evenodd" clip-rule="evenodd" d="M217.609 36.8955L230.978 118.401L183.587 110.805L217.609 36.8955Z" fill="#6C913B"/>
<path d="M92.7199 174.328L109.46 133.866L111.281 134.68L101.051 174.173L116.28 227.192L133.562 200.683L146.117 157.353V157.314L146.349 156.539L146.194 157.314H147.705L141.699 204.907L119.651 236.378L123.952 333.347L131.082 357.803L158.749 368.965L168.901 357.221L167.661 335.169L153.905 293.389L166.111 239.323H173.784L171.846 286.141L171.691 293.389L184.362 331.797L205.016 320.48L211.758 289.281L214.548 288.467L211.642 324.704L191.221 342.261L182.115 371.174L185.254 392.8L195.6 398.885L235.511 385.785L266.279 263.159L293.829 189.095L281.856 140.184L285.459 144.369L294.488 167.081L303.982 188.785L277.167 286.141L252.561 393.11L246.323 401.404L209.549 423.844L202.342 448.028L219.275 526.666L215.207 599.451L209.666 602.513H193.972H177.155L171.575 599.451L174.442 539.766L169.25 456.594L159.989 395.552L116.822 372.957L109.382 338.618L110.971 233.975L92.7199 174.328Z" fill="#958C61"/>
<path d="M174.481 170.027L175.682 173.205L173.319 205.063V218.628H167.971L168.049 218.435L165.026 222.194V203.552L173.939 164.485L167.157 150.533L168.204 149.486L176.264 164.098L175.682 172.895L174.481 170.027Z" fill="#958C61"/>
<path d="M204.744 196.032L204.822 205.76L195.406 218.627L183.703 217.852L204.744 196.032Z" fill="#958C61"/>
<path d="M190.485 140.416L192.732 139.757L193.972 140.416L210.983 179.017L225.282 129.37H226.676L228.304 130.727L220.167 175.026L204.822 205.76L204.706 190.606L190.485 140.416Z" fill="#958C61"/>
<path d="M232.218 223.898L232.373 225.875L227.297 224.944V189.25L230.474 158.244H231.598L230.474 190.722L236.325 225.875L232.218 223.898Z" fill="#958C61"/>
<path d="M281.856 140.222L285.498 144.369L294.527 167.119L292.279 165.84L281.856 140.222Z" fill="#555A33"/>
<path d="M246.4 398.11L304.02 188.785L294.527 167.12L292.279 165.841L300.339 189.715L241.324 393.11L246.4 398.11Z" fill="#A59C6E"/>
<path d="M297.162 189.25L272.672 263.702L252.639 354.121L300.339 189.715L292.279 165.841L297.162 189.25Z" fill="#888458"/>
<path d="M281.856 140.222L293.868 189.094L297.162 189.249L292.279 165.84L281.856 140.222Z" fill="#5E613B"/>
<path d="M197.305 399.583L195.638 398.846L235.55 385.746L266.278 263.159L293.868 189.095L297.162 189.25L272.672 263.701L252.639 354.121L236.751 387.684L197.305 399.583Z" fill="#5E613B"/>
<path d="M197.305 399.583L195.638 412.566L241.324 393.11L252.639 354.121L236.751 387.684L197.305 399.583Z" fill="#78774F"/>
<path d="M205.403 420.084L195.638 412.565L241.324 393.109L246.4 398.109L205.403 420.084Z" fill="#88845A"/>
<path d="M209.627 423.844L205.403 420.084L246.4 398.109V401.404L209.627 423.844Z" fill="#988E63"/>
<path d="M277.206 286.142L252.639 393.11L246.4 401.404V398.11L277.206 286.142Z" fill="#BCB282"/>
<path d="M197.305 399.583L195.638 398.847L185.098 392.685L195.638 412.567L197.305 399.583Z" fill="#989064"/>
<path d="M173.784 357.804L171.691 374.895L195.638 412.567L185.331 393.111L182.076 371.214L173.784 357.804Z" fill="#B8AB7B"/>
<path d="M205.403 420.084L197.305 450.198L202.458 448.028L209.627 423.843L205.403 420.084Z" fill="#BFB180"/>
<path d="M214.315 528.835L197.304 450.198L202.458 448.027L219.392 526.704L214.315 528.835Z" fill="#C5B684"/>
<path d="M209.782 602.511L214.315 528.835L219.392 526.703L215.323 599.488L209.782 602.511Z" fill="#BAAC7C"/>
<path d="M194.088 602.511H209.782L214.315 528.835L197.808 526.703L194.088 602.511Z" fill="#AA9F72"/>
<path d="M197.304 450.198L183.897 448.027L197.808 526.704L214.315 528.835L197.304 450.198Z" fill="#A79D70"/>
<path d="M182.89 427.139L183.897 448.029L197.304 450.199L205.403 420.085L195.638 412.566L182.89 427.139Z" fill="#A39A6D"/>
<path d="M166.499 394.351L195.638 412.566L182.89 427.139L166.499 394.351Z" fill="#9C9468"/>
<path d="M171.691 374.893L166.499 394.348L195.638 412.564L171.691 374.893Z" fill="#928C61"/>
<path d="M158.71 375.939L171.691 374.893L166.499 394.348L158.71 375.939Z" fill="#979065"/>
<path d="M161.539 370.049L158.71 375.94L171.691 374.893L161.539 370.049Z" fill="#7F7B52"/>
<path d="M173.784 357.804L161.539 370.051L171.691 374.895L173.784 357.804Z" fill="#65663F"/>
<path d="M158.71 375.942L124.494 365.09L120.968 371.33L158.71 375.942Z" fill="#848058"/>
<path d="M166.499 394.349L120.968 371.327L158.71 375.939L166.499 394.349Z" fill="#8E885E"/>
<path d="M124.494 365.088L129.338 359.235L158.71 375.939L124.494 365.088Z" fill="#9E9569"/>
<path d="M131.043 357.804L129.338 359.238L158.71 375.942L161.539 370.051L158.71 368.927L131.043 357.804Z" fill="#A69B6E"/>
<path d="M168.901 357.182L167.661 335.129L171.149 336.718L173.784 357.802L168.901 357.182Z" fill="#5E623C"/>
<path d="M158.71 368.926L168.901 357.183L173.784 357.803L161.539 370.05L158.71 368.926Z" fill="#5E613B"/>
<path d="M129.338 359.238L122.324 336.836L119.612 236.379L123.913 333.348L131.043 357.804L129.338 359.238Z" fill="#BFB180"/>
<path d="M124.494 365.088L129.338 359.236L122.324 336.835L119.612 236.377L116.899 229.362L117.829 339.315L124.494 365.088Z" fill="#B0A476"/>
<path d="M120.968 371.328L112.288 340.362L113.18 232.928L116.899 229.362L117.829 339.315L124.494 365.088L120.968 371.328Z" fill="#77764F"/>
<path d="M109.46 133.866L96.1298 174.793L113.18 232.928L112.288 340.362L120.968 371.329L166.499 394.35L182.89 427.138L171.691 456.632L181.068 540.269L177.232 602.513L171.691 599.49L174.52 539.804L169.327 456.632L160.066 395.59L116.899 372.995L109.46 338.657L111.048 234.014L92.7198 174.328L109.46 133.866Z" fill="#646841"/>
<path d="M116.9 229.363L101.012 174.173L111.242 134.719L109.46 133.866L96.1299 174.793L113.18 232.928L116.9 229.363Z" fill="#AB9F71"/>
<path d="M146.349 156.538L136.274 202.969L116.899 229.362L116.279 227.192L133.562 200.721L146.349 156.538Z" fill="#5E623C"/>
<path d="M119.612 236.377L116.899 229.362L136.274 202.969L146.116 157.313H147.705L141.699 204.907L119.612 236.377Z" fill="#A1986C"/>
<path d="M194.088 602.513H177.232L181.069 540.27L171.691 456.633L182.89 427.139L183.897 448.029L197.808 526.705L194.088 602.513Z" fill="#73734B"/>
<path d="M182.076 371.211L191.182 342.26L173.784 357.801L182.076 371.211Z" fill="#A3996C"/>
<path d="M211.603 324.703L191.182 342.259L173.784 357.801L179.945 337.221L204.977 320.478L211.719 289.318L214.509 288.504L211.603 324.703Z" fill="#9A9266"/>
<path d="M184.323 331.795L179.945 337.221L204.977 320.479L184.323 331.795Z" fill="#5E623C"/>
<path d="M173.784 239.323L171.807 286.141L163.98 294.358L179.945 337.223L173.784 357.803L171.149 336.719L167.661 335.13L153.905 293.389L166.111 239.323H173.784Z" fill="#5E623C"/>
<path d="M184.323 331.797L171.691 293.389L171.807 286.142L163.98 294.358L179.945 337.223L184.323 331.797Z" fill="#958D62"/>
<path d="M173.319 218.627V205.062L175.682 173.204L174.481 170.026L172.892 174.793L166.537 203.28L171.885 206.148L167.971 218.627H173.319Z" fill="#898258"/>
<path d="M165.026 222.194L168.049 218.435L171.885 206.149L166.538 203.281L172.892 174.794L174.481 170.027L175.682 172.895L176.264 164.098L168.204 149.486L167.158 150.533L173.939 164.485L165.026 203.552V222.194Z" fill="#5F613B"/>
<path d="M193.972 140.415L210.983 179.017V187.156L191.57 141.5L193.972 140.415Z" fill="#7A764E"/>
<path d="M204.822 205.759L210.983 187.155L191.57 141.5L193.972 140.415L192.732 139.756L190.485 140.415L204.706 190.605L204.822 205.759Z" fill="#5A5D37"/>
<path d="M183.704 217.852L204.745 196.032L204.822 205.76L195.406 218.627L183.704 217.852Z" fill="#66663F"/>
<path d="M226.677 129.37L210.983 187.156V179.018L225.282 129.37H226.677Z" fill="#5A5D37"/>
<path d="M204.822 205.76L220.167 175.026L228.304 130.727L226.677 129.37L210.983 187.156L204.822 205.76Z" fill="#78754D"/>
<path d="M231.598 158.244L229.002 190.257L232.373 225.875L227.297 224.944V189.25L230.474 158.244H231.598Z" fill="#484E29"/>
<path d="M236.325 225.875L232.218 223.898L229.002 190.257L231.598 158.244L230.474 190.722L236.325 225.875Z" fill="#958C61"/>
<path fill-rule="evenodd" clip-rule="evenodd" d="M152.975 232.928L166.111 218.627L200.753 215.255L225.824 222.037L257.909 231.533L298.828 250.717L300.339 280.405L252.871 286.141L231.327 283.583L209.627 289.9L174.946 246.338L169.56 246.222L152.975 232.928Z" fill="#607C32"/>
<path fill-rule="evenodd" clip-rule="evenodd" d="M298.828 250.718L257.909 231.533L243.455 250.718H298.828Z" fill="#9BC056"/>
<path fill-rule="evenodd" clip-rule="evenodd" d="M224.7 227.889L243.455 250.717L257.909 231.533L225.824 222.037L224.7 227.889Z" fill="#ADD461"/>
<path fill-rule="evenodd" clip-rule="evenodd" d="M200.753 215.255L225.824 222.037L224.7 227.89L200.753 215.255Z" fill="#97BB53"/>
<path fill-rule="evenodd" clip-rule="evenodd" d="M166.111 218.627L200.753 215.255L224.7 227.89L208.271 247.268L166.111 218.627Z" fill="#89AF4B"/>
<path fill-rule="evenodd" clip-rule="evenodd" d="M169.56 246.222L166.111 218.627L208.271 247.268L169.56 246.222Z" fill="#769C41"/>
<path fill-rule="evenodd" clip-rule="evenodd" d="M152.975 232.928L166.111 218.627L169.56 246.222L152.975 232.928Z" fill="#688D38"/>
<path fill-rule="evenodd" clip-rule="evenodd" d="M243.455 250.716L224.7 227.889L208.271 247.267L243.455 250.716Z" fill="#ADD562"/>
<path fill-rule="evenodd" clip-rule="evenodd" d="M209.627 289.902L231.327 283.584L252.871 286.142L207.224 253.897L243.455 250.718L208.271 247.269L174.83 246.223L209.627 289.902Z" fill="#648735"/>
<path fill-rule="evenodd" clip-rule="evenodd" d="M277.593 275.601L243.455 250.719L252.871 286.142L277.593 275.601Z" fill="#84A948"/>
<path fill-rule="evenodd" clip-rule="evenodd" d="M207.224 253.897L243.455 250.719L252.871 286.142L207.224 253.897Z" fill="#9DC459"/>
<path fill-rule="evenodd" clip-rule="evenodd" d="M298.828 250.719L277.593 275.601L243.455 250.719H298.828Z" fill="#A3CA5B"/>
<path fill-rule="evenodd" clip-rule="evenodd" d="M300.339 280.406L277.593 275.601L298.828 250.719L300.339 280.406Z" fill="#B6DF68"/>
<path fill-rule="evenodd" clip-rule="evenodd" d="M252.871 286.141L277.593 275.6L300.339 280.405L252.871 286.141Z" fill="#6F903A"/>
<g opacity="0.8">
<g opacity="0.8">
<g opacity="0.8">
<path opacity="0.8" d="M304.834 563.408L338.12 580.422L333.005 575.151L342.654 566.702L350.636 547.866L410 589.297L395.818 603.327L386.634 606.04L373.692 604.839L353.348 596.235L351.411 594.219V607.823L345.056 608.753L307.547 611.001L267.17 603.753L256.475 594.723L304.834 563.408Z" fill="#B2B175"/>
</g>
</g>
<g opacity="0.8">
<path opacity="0.8" fill-rule="evenodd" clip-rule="evenodd" d="M28.3183 129.602L58.1553 123.943L103.57 133.439L149.681 120.765L153.75 113.983L183.587 110.805L230.358 118.285L294.294 128.904L350.365 157.623L315.529 168.242L280.732 148.786L263.566 146.771L232.179 158.282L177.232 167.118L172.737 163.94L144.915 164.173L133.872 175.025L110.351 170.49L81.87 142.934L35.3319 137.276L28.3183 129.602Z" fill="#658635"/>
<path opacity="0.8" fill-rule="evenodd" clip-rule="evenodd" d="M247.059 137.701L219.508 126.19H194.863V144.949L247.059 137.701Z" fill="#5B7D2D"/>
<path opacity="0.8" fill-rule="evenodd" clip-rule="evenodd" d="M98.1447 121.231L103.57 133.44L58.1553 123.944L98.1447 121.231Z" fill="#6B8F3A"/>
<path opacity="0.8" fill-rule="evenodd" clip-rule="evenodd" d="M149.681 120.767L98.1446 121.232L103.569 133.44L149.681 120.767Z" fill="#6F913B"/>
<path opacity="0.8" fill-rule="evenodd" clip-rule="evenodd" d="M2.04615 98.9846L7.62604 77.2808L0.999908 76.2344L2.04615 98.9846Z" fill="#638A37"/>
<path opacity="0.8" fill-rule="evenodd" clip-rule="evenodd" d="M28.3182 129.604L2.04611 98.986L7.62603 77.2822L29.9069 82.2818L58.1552 123.945L28.3182 129.604Z" fill="#658B37"/>
<path opacity="0.8" fill-rule="evenodd" clip-rule="evenodd" d="M30.1007 55.3052L7.62606 77.2803L0.999878 76.2338L21.9246 53.6387L30.1007 55.3052Z" fill="#5C8631"/>
<path opacity="0.8" fill-rule="evenodd" clip-rule="evenodd" d="M61.5264 71.8926L30.1006 55.3047L7.62598 77.2798L29.9069 82.2794L61.5264 71.8926Z" fill="#668E38"/>
<path opacity="0.8" fill-rule="evenodd" clip-rule="evenodd" d="M58.1552 123.944L61.5264 71.8936L29.9069 82.2804L58.1552 123.944Z" fill="#6F953D"/>
<path opacity="0.8" fill-rule="evenodd" clip-rule="evenodd" d="M98.1447 121.231L61.5265 71.8936L58.1552 123.944L98.1447 121.231Z" fill="#7CA144"/>
<path opacity="0.8" fill-rule="evenodd" clip-rule="evenodd" d="M71.1752 59.9561L61.5266 71.8931L41.6869 61.4288L71.1752 59.9561Z" fill="#6C933A"/>
<path opacity="0.8" fill-rule="evenodd" clip-rule="evenodd" d="M86.8687 68.7926L71.1751 59.9561L61.5266 71.8931L86.8687 68.7926Z" fill="#6E953B"/>
<path opacity="0.8" fill-rule="evenodd" clip-rule="evenodd" d="M107.328 76.2343L86.8686 68.793L61.5265 71.8935L107.328 76.2343Z" fill="#8FB550"/>
<path opacity="0.8" fill-rule="evenodd" clip-rule="evenodd" d="M98.1446 121.231L107.328 76.2343L61.5265 71.8936L98.1446 121.231Z" fill="#88AD4C"/>
<path opacity="0.8" fill-rule="evenodd" clip-rule="evenodd" d="M119.108 55.3047L153.75 113.982L149.681 120.765L119.108 55.3047Z" fill="#5B7F2C"/>
<path opacity="0.8" fill-rule="evenodd" clip-rule="evenodd" d="M139.413 120.765L119.108 55.3047L149.681 120.765H139.413Z" fill="#517529"/>
<path opacity="0.8" fill-rule="evenodd" clip-rule="evenodd" d="M107.328 76.2333L119.108 55.3047L139.413 120.765L98.1447 121.23L107.328 76.2333Z" fill="#90B651"/>
<path opacity="0.8" fill-rule="evenodd" clip-rule="evenodd" d="M86.8686 68.7925L99.8109 31.3535L119.108 55.3052L86.8686 68.7925Z" fill="#739B40"/>
<path opacity="0.8" fill-rule="evenodd" clip-rule="evenodd" d="M71.175 59.956L99.8109 31.3535L86.8686 68.7925L71.175 59.956Z" fill="#5C8530"/>
<path opacity="0.8" fill-rule="evenodd" clip-rule="evenodd" d="M59.3953 60.538L92.8748 34.8036L103.57 17.1692L134.375 0L132.67 4.80584L99.8109 31.3542L71.1751 59.9567L59.3953 60.538Z" fill="#57802E"/>
<path opacity="0.8" fill-rule="evenodd" clip-rule="evenodd" d="M153.75 18.5265L132.67 4.80664L99.8109 31.355L119.108 55.3067L153.75 18.5265Z" fill="#628935"/>
<path opacity="0.8" fill-rule="evenodd" clip-rule="evenodd" d="M158.245 55.3065L153.75 18.5264L119.108 55.3065H158.245Z" fill="#739A40"/>
<path opacity="0.8" fill-rule="evenodd" clip-rule="evenodd" d="M153.75 113.982L158.245 55.3047H119.108L153.75 113.982Z" fill="#6F953D"/>
<path opacity="0.8" fill-rule="evenodd" clip-rule="evenodd" d="M162.197 9.65043L134.375 0L132.67 4.80584L153.75 18.5257L162.197 9.65043Z" fill="#98BF56"/>
<path opacity="0.8" fill-rule="evenodd" clip-rule="evenodd" d="M217.609 36.8971L153.75 18.5264L226.366 33.9128L217.609 36.8971Z" fill="#6D953C"/>
<path opacity="0.8" fill-rule="evenodd" clip-rule="evenodd" d="M183.587 110.806L217.609 36.8971L153.75 18.5264L158.245 55.3065L153.75 113.984L183.587 110.806Z" fill="#668C37"/>
<path opacity="0.8" fill-rule="evenodd" clip-rule="evenodd" d="M250.469 106.968L217.609 36.8955L183.587 110.805L230.978 118.401L250.469 106.968Z" fill="#648A36"/>
<path opacity="0.8" fill-rule="evenodd" clip-rule="evenodd" d="M226.366 33.9121L250.469 106.969L217.609 36.8964L226.366 33.9121Z" fill="#749B40"/>
<path opacity="0.8" fill-rule="evenodd" clip-rule="evenodd" d="M202.691 13.1007L162.197 9.65137L153.75 18.5267L226.366 33.9131L202.691 13.1007Z" fill="#8AB14E"/>
<path opacity="0.8" fill-rule="evenodd" clip-rule="evenodd" d="M261.008 42.3223L247.059 38.9505L226.366 33.9121L250.469 106.969L261.008 42.3223Z" fill="#99BF56"/>
<path opacity="0.8" fill-rule="evenodd" clip-rule="evenodd" d="M229.505 23.0601L202.691 13.0996L226.366 33.912L244.966 38.4465L229.505 23.0601Z" fill="#A2CA5B"/>
<path opacity="0.8" fill-rule="evenodd" clip-rule="evenodd" d="M294.604 116.463L250.469 106.968L230.978 118.401L294.294 128.904L294.604 116.463Z" fill="#6C913A"/>
<path opacity="0.8" fill-rule="evenodd" clip-rule="evenodd" d="M277.128 46.8568L261.008 42.3223L294.604 116.464L277.128 46.8568Z" fill="#B7E068"/>
<path opacity="0.8" fill-rule="evenodd" clip-rule="evenodd" d="M250.469 106.969L261.008 42.3223L294.604 116.464L250.469 106.969Z" fill="#B0D964"/>
<path opacity="0.8" fill-rule="evenodd" clip-rule="evenodd" d="M277.128 46.8564L298.208 72.0096L318.086 85.5744L310.414 101.542L294.604 116.464L277.128 46.8564Z" fill="#B2DB65"/>
<path opacity="0.8" fill-rule="evenodd" clip-rule="evenodd" d="M294.294 128.905L310.414 101.543L294.604 116.464L294.294 128.905Z" fill="#A3C95B"/>
<path opacity="0.8" fill-rule="evenodd" clip-rule="evenodd" d="M341.607 87.2417L310.414 101.543L318.086 85.5752L341.607 87.2417Z" fill="#8CB34C"/>
<path opacity="0.8" fill-rule="evenodd" clip-rule="evenodd" d="M350.365 157.624L310.414 101.543L294.294 128.905L350.365 157.624Z" fill="#6B9139"/>
<path opacity="0.8" fill-rule="evenodd" clip-rule="evenodd" d="M341.607 87.2412L365.244 137.586L350.364 157.623L310.414 101.542L341.607 87.2412Z" fill="#96BC54"/>
<path opacity="0.8" fill-rule="evenodd" clip-rule="evenodd" d="M382.139 92.8222L341.607 87.2412L365.244 137.586L382.139 92.8222Z" fill="#ACD462"/>
<path opacity="0.8" fill-rule="evenodd" clip-rule="evenodd" d="M395.081 97.6291L382.139 92.8232L388.61 165.763L397.794 169.678L395.081 97.6291Z" fill="#B7E068"/>
<path opacity="0.8" fill-rule="evenodd" clip-rule="evenodd" d="M365.244 137.587L382.139 92.8232L388.61 165.763L365.244 137.587Z" fill="#B3DC66"/>
<path opacity="0.8" fill-rule="evenodd" clip-rule="evenodd" d="M350.365 157.623L365.244 137.586L388.61 165.762L350.365 157.623Z" fill="#A5CD5E"/>
<path opacity="0.8" fill-rule="evenodd" clip-rule="evenodd" d="M280.732 148.786L316.885 176.458L315.529 168.242L280.732 148.786Z" fill="#5B7C2D"/>
<path opacity="0.8" fill-rule="evenodd" clip-rule="evenodd" d="M388.61 165.762L347.497 168.746L315.529 168.242L316.885 176.459L387.099 175.025L388.61 165.762Z" fill="#6A8D38"/>
<path opacity="0.8" fill-rule="evenodd" clip-rule="evenodd" d="M397.794 169.676L388.61 165.762L387.099 175.025L397.794 169.676Z" fill="#8FB450"/>
<path opacity="0.8" fill-rule="evenodd" clip-rule="evenodd" d="M350.365 157.623L347.497 168.746L388.61 165.762L350.365 157.623Z" fill="#779B40"/>
<path opacity="0.8" fill-rule="evenodd" clip-rule="evenodd" d="M315.529 168.242L350.365 157.623L347.497 168.746L315.529 168.242Z" fill="#698E38"/>
<path opacity="0.8" fill-rule="evenodd" clip-rule="evenodd" d="M86.8686 68.792L119.108 55.3047L107.328 76.2333L86.8686 68.792Z" fill="#87AD4C"/>
<path opacity="0.8" fill-rule="evenodd" clip-rule="evenodd" d="M217.609 36.8955L230.978 118.401L183.587 110.805L217.609 36.8955Z" fill="#6C913B"/>
</g>
<g opacity="0.8">
<g opacity="0.8">
<path opacity="0.8" d="M92.7199 174.328L109.46 133.866L111.281 134.68L101.051 174.173L116.28 227.192L133.562 200.683L146.117 157.353V157.314L146.349 156.539L146.194 157.314H147.705L141.699 204.907L119.651 236.378L123.952 333.347L131.082 357.803L158.749 368.965L168.901 357.221L167.661 335.169L153.905 293.389L166.111 239.323H173.784L171.846 286.141L171.691 293.389L184.362 331.797L205.016 320.48L211.758 289.281L214.548 288.467L211.642 324.704L191.221 342.261L182.115 371.174L185.254 392.8L195.6 398.885L235.511 385.785L266.279 263.159L293.829 189.095L281.856 140.184L285.459 144.369L294.488 167.081L303.982 188.785L277.167 286.141L252.561 393.11L246.323 401.404L209.549 423.844L202.342 448.028L219.275 526.666L215.207 599.451L209.666 602.513H193.972H177.155L171.575 599.451L174.442 539.766L169.25 456.594L159.989 395.552L116.822 372.957L109.382 338.618L110.971 233.975L92.7199 174.328Z" fill="#958C61"/>
<path opacity="0.8" d="M174.481 170.027L175.682 173.205L173.319 205.063V218.628H167.971L168.049 218.435L165.026 222.194V203.552L173.939 164.485L167.157 150.533L168.204 149.486L176.264 164.098L175.682 172.895L174.481 170.027Z" fill="#958C61"/>
<g opacity="0.8">
<path opacity="0.8" d="M204.744 196.032L204.822 205.76L195.406 218.627L183.703 217.852L204.744 196.032Z" fill="#958C61"/>
<path opacity="0.8" d="M190.485 140.416L192.732 139.757L193.972 140.416L210.983 179.017L225.282 129.37H226.676L228.304 130.727L220.167 175.026L204.822 205.76L204.706 190.606L190.485 140.416Z" fill="#958C61"/>
</g>
<path opacity="0.8" d="M232.218 223.898L232.373 225.875L227.297 224.944V189.25L230.474 158.244H231.598L230.474 190.722L236.325 225.875L232.218 223.898Z" fill="#958C61"/>
</g>
</g>
<g opacity="0.8">
<path opacity="0.8" d="M281.856 140.222L285.498 144.369L294.527 167.119L292.279 165.84L281.856 140.222Z" fill="#555A33"/>
<path opacity="0.8" d="M246.4 398.11L304.02 188.785L294.527 167.12L292.279 165.841L300.339 189.715L241.324 393.11L246.4 398.11Z" fill="#A59C6E"/>
<path opacity="0.8" d="M297.162 189.25L272.672 263.702L252.639 354.121L300.339 189.715L292.279 165.841L297.162 189.25Z" fill="#888458"/>
<path opacity="0.8" d="M281.856 140.222L293.868 189.094L297.162 189.249L292.279 165.84L281.856 140.222Z" fill="#5E613B"/>
<path opacity="0.8" d="M197.305 399.583L195.638 398.846L235.55 385.746L266.278 263.159L293.868 189.095L297.162 189.25L272.672 263.701L252.639 354.121L236.751 387.684L197.305 399.583Z" fill="#5E613B"/>
<path opacity="0.8" d="M197.305 399.583L195.638 412.566L241.324 393.11L252.639 354.121L236.751 387.684L197.305 399.583Z" fill="#78774F"/>
<path opacity="0.8" d="M205.403 420.084L195.638 412.565L241.324 393.109L246.4 398.109L205.403 420.084Z" fill="#88845A"/>
<path opacity="0.8" d="M209.627 423.844L205.403 420.084L246.4 398.109V401.404L209.627 423.844Z" fill="#988E63"/>
<path opacity="0.8" d="M277.206 286.142L252.639 393.11L246.4 401.404V398.11L277.206 286.142Z" fill="#BCB282"/>
<path opacity="0.8" d="M197.305 399.583L195.638 398.847L185.098 392.685L195.638 412.567L197.305 399.583Z" fill="#989064"/>
<path opacity="0.8" d="M173.784 357.804L171.691 374.895L195.638 412.567L185.331 393.111L182.076 371.214L173.784 357.804Z" fill="#B8AB7B"/>
<path opacity="0.8" d="M205.403 420.084L197.305 450.198L202.458 448.028L209.627 423.843L205.403 420.084Z" fill="#BFB180"/>
<path opacity="0.8" d="M214.315 528.835L197.304 450.198L202.458 448.027L219.392 526.704L214.315 528.835Z" fill="#C5B684"/>
<path opacity="0.8" d="M209.782 602.511L214.315 528.835L219.392 526.703L215.323 599.488L209.782 602.511Z" fill="#BAAC7C"/>
<path opacity="0.8" d="M194.088 602.511H209.782L214.315 528.835L197.808 526.703L194.088 602.511Z" fill="#AA9F72"/>
<path opacity="0.8" d="M197.304 450.198L183.897 448.027L197.808 526.704L214.315 528.835L197.304 450.198Z" fill="#A79D70"/>
<path opacity="0.8" d="M182.89 427.139L183.897 448.029L197.304 450.199L205.403 420.085L195.638 412.566L182.89 427.139Z" fill="#A39A6D"/>
<path opacity="0.8" d="M166.499 394.351L195.638 412.566L182.89 427.139L166.499 394.351Z" fill="#9C9468"/>
<path opacity="0.8" d="M171.691 374.893L166.499 394.348L195.638 412.564L171.691 374.893Z" fill="#928C61"/>
<path opacity="0.8" d="M158.71 375.939L171.691 374.893L166.499 394.348L158.71 375.939Z" fill="#979065"/>
<path opacity="0.8" d="M161.539 370.049L158.71 375.94L171.691 374.893L161.539 370.049Z" fill="#7F7B52"/>
<path opacity="0.8" d="M173.784 357.804L161.539 370.051L171.691 374.895L173.784 357.804Z" fill="#65663F"/>
<path opacity="0.8" d="M158.71 375.942L124.494 365.09L120.968 371.33L158.71 375.942Z" fill="#848058"/>
<path opacity="0.8" d="M166.499 394.349L120.968 371.327L158.71 375.939L166.499 394.349Z" fill="#8E885E"/>
<path opacity="0.8" d="M124.494 365.088L129.338 359.235L158.71 375.939L124.494 365.088Z" fill="#9E9569"/>
<path opacity="0.8" d="M131.043 357.804L129.338 359.238L158.71 375.942L161.539 370.051L158.71 368.927L131.043 357.804Z" fill="#A69B6E"/>
<path opacity="0.8" d="M168.901 357.182L167.661 335.129L171.149 336.718L173.784 357.802L168.901 357.182Z" fill="#5E623C"/>
<path opacity="0.8" d="M158.71 368.926L168.901 357.183L173.784 357.803L161.539 370.05L158.71 368.926Z" fill="#5E613B"/>
<path opacity="0.8" d="M129.338 359.238L122.324 336.836L119.612 236.379L123.913 333.348L131.043 357.804L129.338 359.238Z" fill="#BFB180"/>
<path opacity="0.8" d="M124.494 365.088L129.338 359.236L122.324 336.835L119.612 236.377L116.899 229.362L117.829 339.315L124.494 365.088Z" fill="#B0A476"/>
<path opacity="0.8" d="M120.968 371.328L112.288 340.362L113.18 232.928L116.899 229.362L117.829 339.315L124.494 365.088L120.968 371.328Z" fill="#77764F"/>
<path opacity="0.8" d="M109.46 133.866L96.1298 174.793L113.18 232.928L112.288 340.362L120.968 371.329L166.499 394.35L182.89 427.138L171.691 456.632L181.068 540.269L177.232 602.513L171.691 599.49L174.52 539.804L169.327 456.632L160.066 395.59L116.899 372.995L109.46 338.657L111.048 234.014L92.7198 174.328L109.46 133.866Z" fill="#646841"/>
<path opacity="0.8" d="M116.9 229.363L101.012 174.173L111.242 134.719L109.46 133.866L96.1299 174.793L113.18 232.928L116.9 229.363Z" fill="#AB9F71"/>
<path opacity="0.8" d="M146.349 156.538L136.274 202.969L116.899 229.362L116.279 227.192L133.562 200.721L146.349 156.538Z" fill="#5E623C"/>
<path opacity="0.8" d="M119.612 236.377L116.899 229.362L136.274 202.969L146.116 157.313H147.705L141.699 204.907L119.612 236.377Z" fill="#A1986C"/>
<path opacity="0.8" d="M194.088 602.513H177.232L181.069 540.27L171.691 456.633L182.89 427.139L183.897 448.029L197.808 526.705L194.088 602.513Z" fill="#73734B"/>
<path opacity="0.8" d="M182.076 371.211L191.182 342.26L173.784 357.801L182.076 371.211Z" fill="#A3996C"/>
<path opacity="0.8" d="M211.603 324.703L191.182 342.259L173.784 357.801L179.945 337.221L204.977 320.478L211.719 289.318L214.509 288.504L211.603 324.703Z" fill="#9A9266"/>
<path opacity="0.8" d="M184.323 331.795L179.945 337.221L204.977 320.479L184.323 331.795Z" fill="#5E623C"/>
<path opacity="0.8" d="M173.784 239.323L171.807 286.141L163.98 294.358L179.945 337.223L173.784 357.803L171.149 336.719L167.661 335.13L153.905 293.389L166.111 239.323H173.784Z" fill="#5E623C"/>
<path opacity="0.8" d="M184.323 331.797L171.691 293.389L171.807 286.142L163.98 294.358L179.945 337.223L184.323 331.797Z" fill="#958D62"/>
<path opacity="0.8" d="M173.319 218.627V205.062L175.682 173.204L174.481 170.026L172.892 174.793L166.537 203.28L171.885 206.148L167.971 218.627H173.319Z" fill="#898258"/>
<path opacity="0.8" d="M165.026 222.194L168.049 218.435L171.885 206.149L166.538 203.281L172.892 174.794L174.481 170.027L175.682 172.895L176.264 164.098L168.204 149.486L167.158 150.533L173.939 164.485L165.026 203.552V222.194Z" fill="#5F613B"/>
<path opacity="0.8" d="M193.972 140.415L210.983 179.017V187.156L191.57 141.5L193.972 140.415Z" fill="#7A764E"/>
<path opacity="0.8" d="M204.822 205.759L210.983 187.155L191.57 141.5L193.972 140.415L192.732 139.756L190.485 140.415L204.706 190.605L204.822 205.759Z" fill="#5A5D37"/>
<path opacity="0.8" d="M183.704 217.852L204.745 196.032L204.822 205.76L195.406 218.627L183.704 217.852Z" fill="#66663F"/>
<path opacity="0.8" d="M226.677 129.37L210.983 187.156V179.018L225.282 129.37H226.677Z" fill="#5A5D37"/>
<path opacity="0.8" d="M204.822 205.76L220.167 175.026L228.304 130.727L226.677 129.37L210.983 187.156L204.822 205.76Z" fill="#78754D"/>
<path opacity="0.8" d="M231.598 158.244L229.002 190.257L232.373 225.875L227.297 224.944V189.25L230.474 158.244H231.598Z" fill="#484E29"/>
<path opacity="0.8" d="M236.325 225.875L232.218 223.898L229.002 190.257L231.598 158.244L230.474 190.722L236.325 225.875Z" fill="#958C61"/>
</g>
<g opacity="0.8">
<path opacity="0.8" fill-rule="evenodd" clip-rule="evenodd" d="M152.975 232.928L166.111 218.627L200.753 215.255L225.824 222.037L257.909 231.533L298.828 250.717L300.339 280.405L252.871 286.141L231.327 283.583L209.627 289.9L174.946 246.338L169.56 246.222L152.975 232.928Z" fill="#607C32"/>
</g>
<g opacity="0.8">
<path opacity="0.8" fill-rule="evenodd" clip-rule="evenodd" d="M298.828 250.718L257.909 231.533L243.455 250.718H298.828Z" fill="#9BC056"/>
<path opacity="0.8" fill-rule="evenodd" clip-rule="evenodd" d="M224.7 227.889L243.455 250.717L257.909 231.533L225.824 222.037L224.7 227.889Z" fill="#ADD461"/>
<path opacity="0.8" fill-rule="evenodd" clip-rule="evenodd" d="M200.753 215.255L225.824 222.037L224.7 227.89L200.753 215.255Z" fill="#97BB53"/>
<path opacity="0.8" fill-rule="evenodd" clip-rule="evenodd" d="M166.111 218.627L200.753 215.255L224.7 227.89L208.271 247.268L166.111 218.627Z" fill="#89AF4B"/>
<path opacity="0.8" fill-rule="evenodd" clip-rule="evenodd" d="M169.56 246.222L166.111 218.627L208.271 247.268L169.56 246.222Z" fill="#769C41"/>
<path opacity="0.8" fill-rule="evenodd" clip-rule="evenodd" d="M152.975 232.928L166.111 218.627L169.56 246.222L152.975 232.928Z" fill="#688D38"/>
<path opacity="0.8" fill-rule="evenodd" clip-rule="evenodd" d="M243.455 250.716L224.7 227.889L208.271 247.267L243.455 250.716Z" fill="#ADD562"/>
<path opacity="0.8" fill-rule="evenodd" clip-rule="evenodd" d="M209.627 289.902L231.327 283.584L252.871 286.142L207.224 253.897L243.455 250.718L208.271 247.269L174.83 246.223L209.627 289.902Z" fill="#648735"/>
<path opacity="0.8" fill-rule="evenodd" clip-rule="evenodd" d="M277.593 275.601L243.455 250.719L252.871 286.142L277.593 275.601Z" fill="#84A948"/>
<path opacity="0.8" fill-rule="evenodd" clip-rule="evenodd" d="M207.224 253.897L243.455 250.719L252.871 286.142L207.224 253.897Z" fill="#9DC459"/>
<path opacity="0.8" fill-rule="evenodd" clip-rule="evenodd" d="M298.828 250.719L277.593 275.601L243.455 250.719H298.828Z" fill="#A3CA5B"/>
<path opacity="0.8" fill-rule="evenodd" clip-rule="evenodd" d="M300.339 280.406L277.593 275.601L298.828 250.719L300.339 280.406Z" fill="#B6DF68"/>
<path opacity="0.8" fill-rule="evenodd" clip-rule="evenodd" d="M252.871 286.141L277.593 275.6L300.339 280.405L252.871 286.141Z" fill="#6F903A"/>
</g>
</g>
</svg>
