<svg width="14" height="14" viewBox="0 0 14 14" fill="none" xmlns="http://www.w3.org/2000/svg">
<path fill-rule="evenodd" clip-rule="evenodd" d="M7 0C3.1325 0 0 3.1325 0 7C0 10.8675 3.1325 14 7 14C10.8675 14 14 10.8675 14 7C14 3.1325 10.8675 0 7 0ZM7 12.25C4.10375 12.25 1.75 9.89625 1.75 7C1.75 4.10375 4.10375 1.75 7 1.75C9.89625 1.75 12.25 4.10375 12.25 7C12.25 9.89625 9.89625 12.25 7 12.25ZM5.25 6.125C5.25 5.64375 4.85625 5.25 4.375 5.25C3.89375 5.25 3.5 5.64375 3.5 6.125C3.5 6.60625 3.89375 7 4.375 7C4.85625 7 5.25 6.60625 5.25 6.125ZM9.625 5.25C9.14375 5.25 8.75 5.64375 8.75 6.125C8.75 6.60625 9.14375 7 9.625 7C10.1062 7 10.5 6.60625 10.5 6.125C10.5 5.64375 10.1062 5.25 9.625 5.25ZM8.95125 7.875C8.70625 7.875 8.47 7.98 8.30375 8.16375C7.98875 8.5225 7.525 8.75 7 8.75C6.475 8.75 6.01125 8.5225 5.69625 8.16375C5.53 7.98 5.29375 7.875 5.04875 7.875C4.2875 7.875 3.89375 8.785 4.40125 9.345C5.04 10.0538 5.9675 10.5 7 10.5C8.0325 10.5 8.96 10.0538 9.59875 9.345C10.1062 8.785 9.7125 7.875 8.95125 7.875Z" fill="#0A1D11"/>
</svg>
