<svg width="14" height="14" viewBox="0 0 14 14" fill="none" xmlns="http://www.w3.org/2000/svg">
<path fill-rule="evenodd" clip-rule="evenodd" d="M13.125 10.5C12.6438 10.5 12.25 10.8938 12.25 11.375V12.25H1.75V11.375C1.75 10.8938 1.35625 10.5 0.875 10.5C0.39375 10.5 0 10.8938 0 11.375V13.125C0 13.6062 0.39375 14 0.875 14H13.125C13.6062 14 14 13.6062 14 13.125V11.375C14 10.8938 13.6062 10.5 13.125 10.5ZM6.37875 10.2463C6.53625 10.395 6.755 10.5 7 10.5C7.2275 10.5 7.455 10.4125 7.62125 10.2463L10.2463 7.62125C10.5875 7.28 10.5875 6.72875 10.2463 6.3875C9.905 6.04625 9.35375 6.04625 9.0125 6.3875L7.875 7.51625V0.875C7.875 0.39375 7.48125 0 7 0C6.51875 0 6.125 0.39375 6.125 0.875V7.51625L4.99625 6.37875C4.655 6.0375 4.10375 6.0375 3.7625 6.37875C3.42125 6.72 3.42125 7.27125 3.7625 7.6125L6.37875 10.2463Z" fill="#81E35F"/>
</svg>
