<svg width="10" height="9" viewBox="0 0 10 9" fill="none" xmlns="http://www.w3.org/2000/svg">
<path fill-rule="evenodd" clip-rule="evenodd" d="M9.99 4.90006C9.99 4.81006 9.97 4.73006 9.94 4.65006C9.93 4.62006 9.92 4.59006 9.91 4.55006C9.86 4.45006 9.8 4.35006 9.71 4.26006L6.71 1.29006C6.32 0.900059 5.69 0.900059 5.3 1.29006C4.9 1.68006 4.9 2.30006 5.3 2.69006L6.59 3.97006H1C0.45 3.97006 0 4.41006 0 4.96006C0 5.51006 0.45 5.95006 1 5.95006H6.59L5.3 7.23006C4.91 7.62006 4.91 8.24006 5.3 8.63006C5.49 8.83006 5.75 8.92006 6 8.92006C6.25 8.92006 6.51 8.82006 6.71 8.63006L9.71 5.66006C9.72 5.65006 9.72 5.64006 9.73 5.63006C9.81 5.55006 9.88 5.45006 9.93 5.34006C9.93 5.33006 9.93 5.32006 9.94 5.31006C9.98 5.21006 9.99 5.10006 10 5.00006C10 4.96006 9.99 4.93006 9.99 4.90006Z" fill="#2C2C2C"/>
</svg>
