<svg width="120" height="27" viewBox="0 0 120 27" fill="none" xmlns="http://www.w3.org/2000/svg">
<path d="M70.8673 16.186V17.9835H69.1407V20.7314H67.2516V17.9835H60V16.186L65.0985 6.2686H67.1298L62.0313 16.186H67.2516V12.095H69.1407V16.186H70.8673Z" fill="white"/>
<path d="M79.6426 13.2521C80.3332 13.6102 80.8749 14.0923 81.2676 14.6983C81.6603 15.3044 81.8567 15.9931 81.8567 16.7645C81.8567 18.0868 81.403 19.1267 80.4957 19.8843C79.5884 20.6281 78.417 21 76.9816 21C75.5597 21 74.3951 20.6281 73.4878 19.8843C72.5805 19.1267 72.1269 18.0868 72.1269 16.7645C72.1269 15.9931 72.3232 15.3044 72.7159 14.6983C73.1086 14.0923 73.6503 13.6102 74.3409 13.2521C73.1763 12.5083 72.5941 11.4545 72.5941 10.0909C72.5941 8.78237 73.0206 7.77686 73.8738 7.07438C74.7404 6.35813 75.7764 6 76.9816 6C78.2004 6 79.2363 6.35813 80.0894 7.07438C80.9561 7.77686 81.3895 8.78237 81.3895 10.0909C81.3895 11.4545 80.8072 12.5083 79.6426 13.2521ZM76.9816 7.83884C76.2639 7.83884 75.6613 8.03168 75.1738 8.41736C74.6998 8.80303 74.4628 9.37466 74.4628 10.1322C74.4628 10.8623 74.7066 11.4339 75.1941 11.8471C75.6816 12.2466 76.2774 12.4463 76.9816 12.4463C77.6858 12.4463 78.2816 12.2466 78.7691 11.8471C79.2566 11.4339 79.5004 10.8623 79.5004 10.1322C79.5004 9.37466 79.2634 8.80303 78.7894 8.41736C78.3155 8.03168 77.7129 7.83884 76.9816 7.83884ZM76.9816 19.1612C77.8889 19.1612 78.6134 18.9477 79.1551 18.5207C79.7103 18.0799 79.9879 17.4532 79.9879 16.6405C79.9879 15.8416 79.7103 15.2287 79.1551 14.8017C78.6134 14.3609 77.8889 14.1405 76.9816 14.1405C76.0878 14.1405 75.3634 14.3609 74.8081 14.8017C74.2665 15.2287 73.9956 15.8416 73.9956 16.6405C73.9956 17.4532 74.2665 18.0799 74.8081 18.5207C75.3634 18.9477 76.0878 19.1612 76.9816 19.1612Z" fill="white"/>
<path d="M88.6768 21C87.3497 21 86.2122 20.6832 85.2643 20.0496C84.3299 19.416 83.6731 18.5482 83.2939 17.4463L84.919 16.4959C85.4742 18.2452 86.7403 19.1198 88.7174 19.1198C89.6924 19.1198 90.4373 18.9201 90.9518 18.5207C91.4664 18.1074 91.7237 17.5634 91.7237 16.8884C91.7237 16.1997 91.4664 15.6832 90.9518 15.3388C90.4373 14.9945 89.5773 14.6295 88.3721 14.2438C87.7763 14.051 87.3226 13.8994 87.0112 13.7893C86.6997 13.6653 86.307 13.4862 85.833 13.2521C85.3726 13.0041 85.0273 12.7562 84.7971 12.5083C84.5669 12.2466 84.357 11.9091 84.1674 11.4959C83.9913 11.0826 83.9033 10.6143 83.9033 10.0909C83.9033 8.83747 84.3367 7.84573 85.2033 7.1157C86.07 6.3719 87.1263 6 88.3721 6C89.4961 6 90.4711 6.28926 91.2972 6.86777C92.1367 7.44628 92.7664 8.21074 93.1862 9.16116L91.6018 10.0909C90.9925 8.60331 89.9159 7.8595 88.3721 7.8595C87.6002 7.8595 86.9773 8.05234 86.5034 8.43802C86.0294 8.82369 85.7924 9.34711 85.7924 10.0083C85.7924 10.6419 86.0158 11.124 86.4627 11.4545C86.9096 11.7851 87.6815 12.1295 88.7784 12.4876C89.1711 12.6116 89.4487 12.7011 89.6112 12.7562C89.7737 12.8113 90.0242 12.9077 90.3628 13.0455C90.7149 13.1832 90.9722 13.2934 91.1347 13.376C91.2972 13.4587 91.5138 13.5758 91.7847 13.7273C92.069 13.8788 92.2789 14.0234 92.4144 14.1612C92.5498 14.2989 92.7055 14.4711 92.8815 14.6777C93.0711 14.8705 93.2066 15.0702 93.2878 15.2769C93.3691 15.4835 93.4368 15.7245 93.4909 16C93.5586 16.2617 93.5925 16.5441 93.5925 16.8471C93.5925 18.1143 93.1388 19.1267 92.2315 19.8843C91.3242 20.6281 90.1393 21 88.6768 21Z" fill="white"/>
<path d="M107.552 18.8099C106.13 20.27 104.39 21 102.332 21C100.274 21 98.5334 20.27 97.1115 18.8099C95.6896 17.3499 94.9787 15.5799 94.9787 13.5C94.9787 11.4063 95.6896 9.63636 97.1115 8.19008C98.5334 6.73003 100.274 6 102.332 6C104.39 6 106.13 6.73003 107.552 8.19008C108.988 9.63636 109.705 11.4063 109.705 13.5C109.705 15.5799 108.988 17.3499 107.552 18.8099ZM98.4115 17.5083C99.4678 18.5826 100.775 19.1198 102.332 19.1198C103.889 19.1198 105.189 18.5826 106.232 17.5083C107.288 16.4201 107.816 15.084 107.816 13.5C107.816 11.9022 107.288 10.5661 106.232 9.49174C105.189 8.40358 103.889 7.8595 102.332 7.8595C100.775 7.8595 99.4678 8.40358 98.4115 9.49174C97.3688 10.5661 96.8475 11.9022 96.8475 13.5C96.8475 15.084 97.3688 16.4201 98.4115 17.5083Z" fill="white"/>
<path d="M113.866 18.9132H120V20.7314H111.976V6.2686H113.866V18.9132Z" fill="white"/>
<path d="M17.5134 17.4799L17.5131 17.4803C15.2521 19.7359 11.5784 19.7362 9.31753 17.4804L17.5134 17.4799ZM17.5134 17.4799L16.4551 16.4198M17.5134 17.4799L16.4551 16.4198M16.4551 16.4198C17.5134 17.4799 17.5135 17.4799 17.5136 17.4798L17.514 17.4793L17.5157 17.4776L17.5225 17.4708L17.5494 17.4441L17.654 17.3395L18.0514 16.9429L19.4695 15.5271L23.7728 11.231L28.0761 6.93486L29.4942 5.51899L29.8916 5.12221L29.9964 5.01754L30.0236 4.99046L30.0309 4.98313L30.0318 4.98223C30.0322 4.98177 30.0327 4.98131 30.0332 4.98085C32.2851 2.73471 35.2721 1.5 38.4579 1.5C41.6442 1.5 44.6317 2.73514 46.8842 4.98246C49.1363 7.23013 50.3729 10.2099 50.3729 13.3866C50.3729 16.5633 49.1363 19.5433 46.884 21.7905L46.8839 21.7906C44.6318 24.0379 41.6439 25.2731 38.4575 25.2731C35.3546 25.2731 32.4402 24.1018 30.21 21.9651L34.5346 17.6476M16.4551 16.4198L34.5346 17.6476M34.3507 9.30195L34.3509 9.30175L34.3596 9.29306L34.3598 9.29286C36.6208 7.0372 40.2945 7.03694 42.5554 9.29272L34.3507 9.30195ZM34.3507 9.30195L31.322 12.3258L31.322 12.3258L21.8411 21.791L34.3507 9.30195ZM34.5346 17.6476C36.8063 19.7345 40.3519 19.679 42.5554 17.4804C43.6492 16.3895 44.2546 14.9305 44.2546 13.3866C44.2546 11.8428 43.6493 10.3839 42.5557 9.29298L34.5346 17.6476ZM7.61829 13.3866C7.61829 14.9303 8.22367 16.3893 9.31727 17.4801L9.31727 9.29298C8.22367 10.3839 7.61829 11.8428 7.61829 13.3866ZM13.415 7.6009C11.9357 7.6009 10.4491 8.16372 9.31753 9.29272L4.98871 4.98246C7.24078 2.73521 10.2287 1.5 13.415 1.5C16.5183 1.5 19.4325 2.67129 21.6628 4.80783L17.338 9.12556C16.2308 8.10857 14.8195 7.6009 13.415 7.6009ZM1.5 13.3866C1.5 10.2099 2.73658 7.2302 4.98863 4.98254L21.8408 21.7912C19.5888 24.0383 16.6014 25.2731 13.415 25.2731C10.2286 25.2731 7.24071 24.0379 4.98863 21.7906C2.73665 19.5434 1.5 16.5633 1.5 13.3866Z" fill="#81E35F" stroke="#1C1D1C" stroke-width="3"/>
</svg>
