<svg width="12" height="16" viewBox="0 0 12 16" fill="none" xmlns="http://www.w3.org/2000/svg">
<path fill-rule="evenodd" clip-rule="evenodd" d="M10 0H2C0.9 0 0 0.9 0 2V8C0 9.87 1.28 11.43 3.01 11.87C3 11.91 3 11.96 3 12V13.18C3 14.74 4.26 16 5.82 16H6.18C7.74 16 9 14.74 9 13.18V12C9 11.96 9 11.91 8.99 11.87C10.72 11.43 12 9.87 12 8V2C12 0.9 11.1 0 10 0ZM7 13.18C7 13.63 6.63 14 6.18 14H5.82C5.37 14 5 13.63 5 13.18V12H7V13.18ZM8 10H4C2.9 10 2 9.1 2 8H10C10 9.1 9.1 10 8 10ZM10 6H2V2.5C2 2.22 2.22 2 2.5 2C2.78 2 3 2.22 3 2.5V4C3 4.55 3.45 5 4 5C4.55 5 5 4.55 5 4V2.5C5 2.22 5.22 2 5.5 2C5.78 2 6 2.22 6 2.5V3C6 3.55 6.45 4 7 4C7.55 4 8 3.55 8 3V2.5C8 2.22 8.22 2 8.5 2H9.5C9.78 2 10 2.22 10 2.5V6Z" fill="#81E35F"/>
</svg>
